<mxfile host="app.diagrams.net" modified="2023-07-07T00:47:20.612Z" agent="Mozilla/5.0 (Windows NT 10.0; Win64; x64) AppleWebKit/537.36 (KHTML, like Gecko) Chrome/114.0.0.0 Safari/537.36 Edg/114.0.1823.67" etag="02Pnn2xdFPw-hG97T0Sw" version="21.6.1" type="device">
  <diagram name="ページ1" id="9o8CNhbXMcbhhamf7BZq">
    <mxGraphModel dx="880" dy="444" grid="1" gridSize="10" guides="1" tooltips="1" connect="1" arrows="1" fold="1" page="1" pageScale="1" pageWidth="827" pageHeight="1169" math="0" shadow="0">
      <root>
        <mxCell id="0" />
        <mxCell id="1" parent="0" />
        <mxCell id="5dnwOtlFQCeinMWPEVte-2" value="&lt;u&gt;：スイッチ&lt;/u&gt;" style="rounded=0;whiteSpace=wrap;html=1;" vertex="1" parent="1">
          <mxGeometry x="90" y="230" width="120" height="60" as="geometry" />
        </mxCell>
        <mxCell id="5dnwOtlFQCeinMWPEVte-3" value="&lt;u&gt;：グロー式蛍光灯スタンド&lt;/u&gt;" style="rounded=0;whiteSpace=wrap;html=1;" vertex="1" parent="1">
          <mxGeometry x="305" y="230" width="190" height="60" as="geometry" />
        </mxCell>
        <mxCell id="5dnwOtlFQCeinMWPEVte-4" value="&lt;u&gt;：蛍光灯&lt;/u&gt;" style="rounded=0;whiteSpace=wrap;html=1;" vertex="1" parent="1">
          <mxGeometry x="340" y="360" width="120" height="60" as="geometry" />
        </mxCell>
        <mxCell id="5dnwOtlFQCeinMWPEVte-5" value="&lt;u&gt;：グロー球&lt;/u&gt;" style="rounded=0;whiteSpace=wrap;html=1;" vertex="1" parent="1">
          <mxGeometry x="560" y="230" width="120" height="60" as="geometry" />
        </mxCell>
        <mxCell id="5dnwOtlFQCeinMWPEVte-6" value="" style="endArrow=none;html=1;rounded=0;entryX=0;entryY=0.5;entryDx=0;entryDy=0;" edge="1" parent="1" target="5dnwOtlFQCeinMWPEVte-3">
          <mxGeometry width="50" height="50" relative="1" as="geometry">
            <mxPoint x="210" y="260" as="sourcePoint" />
            <mxPoint x="260" y="210" as="targetPoint" />
          </mxGeometry>
        </mxCell>
        <mxCell id="5dnwOtlFQCeinMWPEVte-7" value="" style="endArrow=none;html=1;rounded=0;entryX=0;entryY=0.5;entryDx=0;entryDy=0;" edge="1" parent="1" target="5dnwOtlFQCeinMWPEVte-5">
          <mxGeometry width="50" height="50" relative="1" as="geometry">
            <mxPoint x="495" y="260" as="sourcePoint" />
            <mxPoint x="545" y="210" as="targetPoint" />
          </mxGeometry>
        </mxCell>
        <mxCell id="5dnwOtlFQCeinMWPEVte-8" value="" style="endArrow=none;html=1;rounded=0;" edge="1" parent="1" source="5dnwOtlFQCeinMWPEVte-4">
          <mxGeometry width="50" height="50" relative="1" as="geometry">
            <mxPoint x="400" y="350" as="sourcePoint" />
            <mxPoint x="400" y="290" as="targetPoint" />
          </mxGeometry>
        </mxCell>
      </root>
    </mxGraphModel>
  </diagram>
</mxfile>
